<?xml version="1.0" encoding="UTF-8"?>
<!-- Generator: Adobe Illustrator 15.0.0, SVG Export Plug-In . SVG Version: 6.00 Build 0)  -->
<!DOCTYPE svg PUBLIC "-//W3C//DTD SVG 1.1//EN" "http://www.w3.org/Graphics/SVG/1.1/DTD/svg11.dtd">
<svg version="1.1" id="Layer_1" xmlns="http://www.w3.org/2000/svg" xmlns:xlink="http://www.w3.org/1999/xlink" x="0px" y="0px" width="122.084px" height="49.5px" viewBox="0 0 122.084 49.5" enable-background="new 0 0 122.084 49.5" xml:space="preserve">
<g>
	<g>
		<path fill="#DD4814" d="M23.649,7.29v30.984H13.5V17.713H8.673L14.228,7.29H1.362v22.837c0,2.77,0.288,5.282,0.863,7.551    c0.573,2.269,1.514,4.239,2.813,5.906c1.301,1.666,3.032,2.959,5.164,3.873c2.14,0.913,5.038,1.368,8.164,1.368    c3.6,0,6.915-0.236,9.647-0.699c2.743-0.471,5.087-0.914,6.756-1.333V7.29H23.649z"/>
		<path fill="#DD4814" d="M53.901,20.038c-1.087,0.273-2.927,0.656-5.254,0.656c-4.04,0-5.48-2.496-5.48-6.033V7.29h2.349v6.866    c0,3.205,0.989,4.464,3.387,4.464c0.986,0,2.322-0.123,2.651-0.249V7.29h2.348V20.038z"/>
		<path fill="#DD4814" d="M82.605,20.038c-1.084,0.273-2.935,0.656-5.256,0.656c-4.037,0-5.48-2.496-5.48-6.033V7.29h2.351v6.866    c0,3.205,0.985,4.464,3.382,4.464c0.988,0,2.328-0.123,2.657-0.249V7.29h2.346V20.038z"/>
		<path fill="#DD4814" d="M120.8,20.038c-1.084,0.273-2.934,0.656-5.256,0.656c-4.037,0-5.479-2.496-5.479-6.033V7.29h2.348v6.866    c0,3.205,0.986,4.464,3.388,4.464c0.984,0,2.321-0.123,2.645-0.249V7.29h2.355V20.038z"/>
		<path fill="#DD4814" d="M59.844,7.871c0.58-0.379,1.864-0.886,3.376-0.886c3.771,0,5.968,2.832,5.968,6.873    c0,4.249-2.625,6.873-6.646,6.873c-2.198,0-3.966-0.379-5.056-0.681V1.229l2.356-0.404V7.871z M59.844,18.377    c0.473,0.132,1.386,0.283,2.673,0.283c2.529,0,4.22-1.742,4.22-4.802c0-2.726-1.09-4.798-3.816-4.798    c-1.283,0-2.497,0.53-3.077,1.01V18.377z"/>
		<path fill="#DD4814" d="M86.206,7.663c1.083-0.27,2.93-0.656,5.245-0.656c4.16,0,5.469,2.472,5.469,6.024v7.357h-2.347v-6.85    c0-3.25-0.882-4.458-3.376-4.458c-1.011,0-2.294,0.173-2.65,0.248v11.06h-2.341V7.663z"/>
		<path fill="#DD4814" d="M102.581,7.293h5.095v1.965h-5.095v6.048c0,2.627,0.854,3.301,2.469,3.301c1.407,0,2.34-0.454,2.665-0.581    l0.454,1.941c-0.475,0.229-1.809,0.701-3.326,0.701c-3.523,0-4.607-1.833-4.607-5.335V3.641l2.346-0.405V7.293z"/>
		<path fill="#333333" d="M57.622,25.197c1.093-0.276,2.953-0.656,5.299-0.656c4.206,0,5.522,2.49,5.522,6.083v7.44h-2.372v-6.93    c0-3.284-0.884-4.511-3.413-4.511c-1.012,0-2.313,0.181-2.667,0.255v11.187h-2.37V25.197z"/>
		<path fill="#333333" d="M70.471,31.42c0-4.607,2.975-6.86,6.005-6.86c3.511,0,5.488,2.151,5.488,6.63c0,0.199,0,0.55-0.018,0.83    h-9.044c0.196,2.71,1.551,4.137,4.456,4.137c1.627,0,2.804-0.352,3.382-0.628l0.326,1.953c-0.576,0.301-2.161,0.73-3.961,0.73    C72.577,38.212,70.471,35.331,70.471,31.42L70.471,31.42z M79.54,30.145c0.018-2.106-1.182-3.607-3.08-3.607    c-2.159,0-3.308,1.801-3.513,3.607H79.54z"/>
		<path fill="#333333" d="M55.308,31.389c0,4.115-2.628,6.844-6.189,6.844c-3.557,0-6.186-2.729-6.186-6.844    c0-4.1,2.629-6.829,6.186-6.829C52.68,24.56,55.308,27.29,55.308,31.389L55.308,31.389z M52.877,31.389    c0-2.923-1.478-4.78-3.758-4.78c-2.276,0-3.752,1.857-3.752,4.78c0,2.938,1.476,4.787,3.752,4.787    C51.399,36.176,52.877,34.327,52.877,31.389z"/>
	</g>
</g>
</svg>